<?xml version="1.0" encoding="iso-8859-1"?>
<!-- Generator: Adobe Illustrator 18.1.1, SVG Export Plug-In . SVG Version: 6.00 Build 0)  -->
<svg version="1.1" id="Capa_1" xmlns="http://www.w3.org/2000/svg" xmlns:xlink="http://www.w3.org/1999/xlink" x="0px" y="0px"
	 viewBox="0 0 255.814 255.814" style="enable-background:new 0 0 255.814 255.814;" xml:space="preserve">
<g>
	<path style="fill:#030104;" d="M227.589,47.182c1.374-2.112,2.059-4.559,3.588-6.441c1.035-1.256,2.727-2.359,3.539-3.874
		c1.658-3.078,8.904-10.972,6.812-14.699c-4.876-1.882-9.541,1.337-13.443,2.374l-9.49,2.019c-2.051,0.242-3.977-0.235-5.942,0.155
		c-2.235,0.437-4.201-2.23-5.37-3.149l-4.504-1.809l-0.815-0.757l-2.231-0.012c-0.376-0.214-0.861-0.981-1.443-1.155
		c-1.023-0.327-1.523,0.768-2.82,0.25c-3.115-1.232-7.143-2.866-10.537-2.9c-2.602-0.03-4.745,1.462-7.535,0.439
		c-6.268-2.325-11.736-9.119-15.661-13.628L156.681,0c-3.164,0.831-2.801,5.314-2.44,8.235l-0.213,3.107
		c0.688,3.757,1.533,7.627,2.304,10.972c0.622,2.687-0.445,5.871-0.311,8.243l0.606,3.748l-0.621,0.606l-0.104,2.01l-1.231,1.091
		l0.134,1.917c-0.318,1.114-0.975,1.562-1.473,2.303c-1.057,1.573-0.816,3.507-1.604,5.647c-0.679,1.831-2.19,3.917-2.743,5.858
		c-0.152,0.527,0.109,0.654,0.236,0.92l-0.012,0.104c-0.386,0.514-1.287,0.632-1.565,1.074l-0.128,1.206l-1.811,1.259
		c-0.627,0.314-2.368,0.768-2.808,1.159c-0.585,0.543-0.665,1.155-1.389,1.539l-2.54,0.738l-3.26,2.326l-2.095-0.323l-0.829,0.467
		c-4.367,0.653-8.972-4.667-11.374-3.443l-0.757,0.822c-0.458-0.217-0.833-0.317-1.421-0.274c-0.38,0.744-0.812,1.203-1.506,1.526
		c-1.714-0.46-3.312-0.893-4.982-1.541l-1.683,0.058l-2.668-1.189c-0.271,0.716-0.442,1.029-0.828,1.492
		c-2.098-0.21-2.289,0.351-3.619,0.396c-1.432-0.907-3.532-2.704-4.729-0.731l0.336,1.05l-0.247,0.198
		c-1.946-0.756-5.024-1.248-7.711-1.041l-0.011,0.1l0.545,1.182l-0.235,0.094c-1.083,0.137-2.241-0.506-2.969-0.433
		c-0.797,0.248-0.519,0.595-1.413,0.641c-0.09,0.633-0.159,0.633-0.436,0.945c-2.595-0.158-4.157,0.68-6.292,1.356
		c0.076,0.823,0.411,0.905,0.058,1.567l-2.341,0.99c-2.229,0.458-4.368,0.641-6.413,1.443c-0.675,0.266-0.822,0.995-1.368,1.312
		c-0.943,0.533-3.37,1.294-4.413,1.531l-0.047,0.448c0.524,0.175,0.792,0.297,1.045,0.672l-0.238,0.198
		c-0.357,0.701-1.14,0.989-1.91,1.136l-0.175,1.662c-2.22,0.401-3.551,2.507-4.967,3.612l-2.001,0.908
		c-0.638,0.413-3.856,3.327-4.323,3.897l-1.286,2.664l-1.465,1.179l-0.539,2.965l-2.222,1.999c-1.951,2.084-4.146,4.617-5.662,7.005
		c0.12,0.561,0.311,0.503,0.45,1.056c-2.927,1.783-7.453,10.409-9.31,13.985c-1.149,2.219-2.931,4.018-4.128,6.271l-0.821,2.484
		l-3.146,4.369l0.032,2.908c-1.333,3.008-3.069,7.27-4.135,10.516l-0.203,2.996c-1.005,2.722-2.019,5.324-2.749,7.984
		c-0.988,3.637-1.068,7.066-2.36,10.709c-0.42,1.181-1.405,3.07-1.365,4.441c0.051,1.791-1.657,4.493-0.426,5.093
		c0.672-1.132,1.285-2.444,2.338-3.104l0.21,0.133c-0.515,3.232-1.825,7.932-0.792,10.65c0.388,1.004-0.754,1.582-0.695,2.385
		c0.106,1.455,0.715,3.574,0.884,5.338l-0.558,3.185c0.633,2.032,0.276,4.815,0.699,7.122l-0.037,2.449l0.682,0.974
		c0.378,2.14-0.731,3.473-0.492,5.647c0.156,1.338,1.096,2.417,1.425,3.499l0.275,3.718l0.812,0.76l0.535,3.416l1.378,0.705
		c-0.077,3.078,0.331,12.885,1.696,14.596c1.356,1.696,3.72,2.59,5.262,4.131l1.24,2.035l2.471,0.933
		c0.979,0.827,0.523,2.267,1.935,2.886c0.242-0.359,0.126-0.289,0.598-0.385c1.25,2.176,3.191,1.419,5.671,2.393
		c1.426,0.56,2.066,1.635,3.12,2.229l0.22,0.021c1.042,0.413,1.143-0.416,2.244-0.099c1.128,0.322,2.525,0.29,4.057,0.767
		c1.494,0.459,3.135,1.514,4.885,1.406l0.544-0.939c2.167,0.17,4.27,1.18,6.405,1.793l5.938,0.965l6.088,0.531
		c4.441,0.928,10.19,1.432,14.521,1.195l13.188,1.065l8.356-0.796l3.573,0.041c1.3-0.207,2.849-0.939,3.921-1.146
		c0.911-0.172,1.969,0.769,2.948,0.652l0.013-0.121l-0.212-1.137l3.002-0.909l2.429,0.258c0.724-0.142,0.906-0.755,1.765-0.821
		c2.201-0.18,4.43,1.119,6.433,0.463l0.083-0.78c3.729-0.122,7.085-1.099,10.579-1.675l2.795-0.034
		c0.892-0.415,1.855-1.192,3.049-1.358c8.129-1.133,15.134-2.828,22.309-4.795l8.833-1.081l-0.009-1.004
		c1.465-0.056,8.733-0.278,9.167-1.038c-1.142-0.268-1.366-0.772-1.725-1.64l0.399-0.628c2.587-0.253,6.388,0.305,8.666-0.535
		l0.023-0.226c-0.271-0.354-0.379-0.27-0.473-0.829l0.143-0.32c2.336-0.693,4.66-0.807,7.509-1.221l0.55-0.944
		c6.269-0.362,11.578-1.245,15.355-4.628c1.672-1.512,1.609-6.012,0.096-7.266c-2.197-1.828-7.443-3.223-10.83-3.268l-2.834,0.373
		c-3.753-0.173-8.782,1.008-12.809,1.656l-2.542-0.268c-2.425,0.207-5.251,0.916-7.861,1.408l-6.48,2.107
		c-0.876,0.137-1.126-0.523-1.733-0.521c-1.407,0.003-8.096,1.686-8.331,1.577c-1.239-0.54-5.491-5.217-5.657-6.746
		c-0.151-1.377,0.646-2.143,1.029-3.353c0.92-2.952-0.595-6.159-1.896-7.479c-1.561-1.555-2.448-3.642-3.92-5.214
		c-1.293-1.385-4.35-1.372-5.146-3.114c-0.32-0.693,0.196-1.294,0.089-1.889c-0.304-0.731-1.224-1.159-1.712-1.755
		c0.275-2.142,1.242-4.207,1.645-6.079c0.264-1.216-0.447-2.618,0.178-3.789l0.844-0.577l0.084-2.896l1.078-0.671
		c0.771-1.24,0.504-3.793,0.721-4.723c0.504-0.068,0.674-0.096,0.943-0.472c0.334-0.601,0.9-1.376,1.084-1.781l0.03-1.335
		c0.548-1.326,2.292-3.074,2.71-4.519c0.303-1.026,0.178-3.798,0.69-4.401c0.664,0.352,1.262,0.679,1.966,0.428
		c0.255-0.762,0.583-1.859,1.44-1.971c-0.007-0.783-0.479-2.748,0.032-3.456c0.216-0.296,3.062-1.063,3.61-1.404
		c1.001-0.639,1.423-1.602,2.176-2.563c1.329-1.712,3.952-2.455,5.354-4.131c1.758-2.109,4.435-2.477,6.88-3.752
		c2.58-1.34,4.789-3.489,6.946-5.412c1.937-1.717,3.925-2.524,5.636-4.65l2.542-1.859l0.532-1.841
		c0.719-1.011,2.164-1.491,2.943-2.489l0.619-1.607l1.264-0.314c0.434-0.369,0.971-2.294,1.418-2.862
		c0.512-0.65,1.996-1.025,2.422-1.759c0.866-1.482,0.969-2.68,1.894-4.162l1.101-0.891c0.773-1.862,0.658-3.732,1.867-4.943
		c-0.062-0.543-0.389-0.674-0.449-1.049c-0.098-0.582,0.57-1.117,0.706-1.382l0.366-4.547l0.012-0.105
		c-0.355-2.031-1.588-3.724-1.933-6.022c-0.38-2.564,0.866-4.55-0.06-6.826c0.766-1.172,1.346-3.872,2.731-3.618l0.013-0.123
		c-0.988-1.689,0.789-4.541,2.127-5.351l1.061,0.554c-0.436-0.708-0.645-0.897-0.586-1.849l0.599-0.385
		c1.906,0.627,3.063,1.948,4.374,3.032c4.813,3.977,8.574,9.974,14.529,12.715c0.176-0.201,0.017-0.066,0.246-0.203l0.021-0.21
		c-3.643-0.768-5.496-5.358-7.432-7.943c-2.762-3.691-6.1-6.167-9.882-9.097c0.187-1.666,0.948-2.7,1.761-3.946l0.86,0.31
		l-0.812-0.752c4.087-9.428,5.386-18.387,6.176-27.746L227.589,47.182z M181.528,47.825c-0.358,3.391-2.582,5.937-4.969,5.685
		s-4.027-3.208-3.668-6.599s2.582-5.936,4.967-5.685h0.001C180.246,41.479,181.886,44.434,181.528,47.825z M212.991,54.004
		c-0.359,3.391-2.582,5.936-4.969,5.683c-2.387-0.252-4.027-3.207-3.669-6.598c0.359-3.391,2.582-5.937,4.968-5.685
		C211.708,47.657,213.35,50.611,212.991,54.004z"/>
</g>
<g>
</g>
<g>
</g>
<g>
</g>
<g>
</g>
<g>
</g>
<g>
</g>
<g>
</g>
<g>
</g>
<g>
</g>
<g>
</g>
<g>
</g>
<g>
</g>
<g>
</g>
<g>
</g>
<g>
</g>
</svg>
